<?xml version="1.0" encoding="UTF-8"?>
<svg id="Layer_1" xmlns="http://www.w3.org/2000/svg" viewBox="0 0 400 255">
  <defs>
    <style>
      .cls-1 {
        fill: #fff;
      }
    </style>
  </defs>
  <g id="Layer_1-2" data-name="Layer_1">
    <g>
      <path class="cls-1" d="M150.87,235.94h1.99c1.44,0,2.49-.46,3.14-1.39s.97-2.05.97-3.36c0-1.1-.24-1.92-.73-2.49-.49-.56-1.32-.85-2.5-.85-.6,0-1.08.05-1.44.15l-1.42,7.94h-.01ZM151.29,245.17c1.54,0,2.72-.44,3.53-1.33s1.22-2.15,1.22-3.8c0-1.13-.24-2.01-.72-2.65s-1.34-.96-2.59-.96h-1.97l-1.52,8.51c.51.15,1.2.22,2.04.22M146.57,245.67v-.05c.55-.91.97-2.17,1.27-3.78l1.92-10.57c.28-1.54.25-2.8-.1-3.76v-.05c.56,0,1.3,0,2.22-.04.91-.03,1.61-.04,2.09-.04,3.29,0,4.93,1.3,4.93,3.91,0,1.29-.36,2.38-1.08,3.25s-1.75,1.41-3.1,1.61c1.01.18,1.84.61,2.48,1.27s.96,1.58.96,2.76c0,1.59-.57,2.91-1.69,3.94-1.13,1.04-2.84,1.56-5.13,1.56h-4.77Z"/>
      <path class="cls-1" d="M158.53,249.2c.45,0,.83-.03,1.13-.07.31-.05.69-.17,1.16-.37.46-.2.93-.55,1.38-1.04.46-.5.91-1.14,1.36-1.94l-.8-8.78c-.1-1.01-.21-1.7-.34-2.05-.12-.36-.39-.71-.81-1.06v-.05h2.66l.8,9.11,2.46-4.63c.48-.88.81-1.58.98-2.09s.21-.97.12-1.36c-.09-.39-.36-.72-.81-.98v-.05h2.84v.05l-6.94,12.59c-1,1.83-1.92,3.05-2.78,3.68-.85.63-1.81,1-2.87,1.12l.45-2.07h0Z"/>
      <path class="cls-1" d="M194.09,244.17c-.53.38-1.44.79-2.72,1.22-1.29.43-2.63.65-4.04.65-2.8,0-5.04-.9-6.72-2.7-1.68-1.8-2.51-4.07-2.51-6.81s.91-4.93,2.72-6.74c1.82-1.81,4.17-2.71,7.05-2.71,2.14,0,4.18.41,6.12,1.22l.5,3.78-.2.05c-1.01-1.63-2.02-2.79-3.02-3.49-1.01-.71-2.2-1.06-3.6-1.06-2.41,0-4.21.82-5.42,2.46-1.21,1.64-1.82,3.81-1.82,6.49s.58,4.88,1.76,6.53c1.17,1.65,2.9,2.48,5.19,2.48,1.72,0,3.12-.47,4.18-1.39,1.06-.93,2.01-2.33,2.84-4.21l.2.07-.5,4.15h0Z"/>
      <path class="cls-1" d="M202.2,244.95c1.13,0,2.04-.35,2.74-1.05v-4.13c-1.36.23-2.5.62-3.41,1.17s-1.37,1.28-1.37,2.19c0,.56.17,1.01.51,1.33s.85.49,1.53.49M206.78,245.97c-.56,0-1-.15-1.31-.45s-.48-.7-.53-1.19c-1.03,1.14-2.28,1.72-3.76,1.72-.83,0-1.5-.2-2.02-.61-.51-.41-.77-.98-.77-1.73,0-.65.21-1.24.62-1.77.41-.53.96-.96,1.64-1.3.68-.33,1.38-.6,2.09-.81.71-.21,1.44-.35,2.19-.44v-2.49c0-1.57-.85-2.36-2.56-2.36-1.29,0-2.43.37-3.41,1.1l-.13-.15c1.13-1.36,2.66-2.04,4.6-2.04,2.21,0,3.31,1,3.31,3.01v7.32c0,.71.32,1.07.97,1.07.36,0,.76-.17,1.19-.52l.07.05c-.41,1.06-1.15,1.59-2.21,1.59"/>
      <path class="cls-1" d="M211.88,236.59c-.32-.8-.58-1.38-.78-1.77-.21-.38-.45-.7-.73-.95v-.05h3.53v.05c-.5.58-.52,1.46-.07,2.64l2.51,6.62,2.34-6.17c.53-1.46.45-2.49-.25-3.09v-.05h2.56v.05c-.4.37-.71.74-.95,1.12-.23.38-.49.94-.77,1.69l-3.53,9.16h-.25l-3.61-9.26h0Z"/>
      <path class="cls-1" d="M227.11,244.95c1.13,0,2.04-.35,2.74-1.05v-4.13c-1.36.23-2.5.62-3.41,1.17s-1.37,1.28-1.37,2.19c0,.56.17,1.01.51,1.33s.85.49,1.53.49M231.69,245.97c-.56,0-1-.15-1.31-.45s-.48-.7-.53-1.19c-1.03,1.14-2.28,1.72-3.76,1.72-.83,0-1.5-.2-2.02-.61-.51-.41-.77-.98-.77-1.73,0-.65.21-1.24.62-1.77.41-.53.96-.96,1.64-1.3.68-.33,1.38-.6,2.09-.81.71-.21,1.44-.35,2.19-.44v-2.49c0-1.57-.85-2.36-2.56-2.36-1.29,0-2.43.37-3.41,1.1l-.13-.15c1.13-1.36,2.66-2.04,4.6-2.04,2.21,0,3.31,1,3.31,3.01v7.32c0,.71.32,1.07.97,1.07.36,0,.76-.17,1.19-.52l.07.05c-.41,1.06-1.15,1.59-2.21,1.59"/>
      <path class="cls-1" d="M236.61,245.61c.36-.71.55-1.76.55-3.14v-12.66c0-.91-.37-1.68-1.12-2.29v-.05l2.94-1.19v16.17c0,1.51.18,2.56.55,3.16v.05h-2.91v-.05h-.01Z"/>
      <path class="cls-1" d="M243.61,245.61c.36-.71.55-1.76.55-3.14v-12.66c0-.91-.37-1.68-1.12-2.29v-.05l2.94-1.19v16.17c0,1.51.18,2.56.55,3.16v.05h-2.91v-.05h-.01Z"/>
      <path class="cls-1" d="M253.11,229.27c0,.35-.12.64-.36.88s-.53.36-.86.36-.62-.12-.87-.36-.37-.53-.37-.88.13-.62.37-.87c.25-.25.54-.37.87-.37s.62.12.86.37.36.54.36.87M250.52,245.61c.36-1,.55-2.26.55-3.78v-4.63c0-1.01-.37-1.83-1.1-2.46v-.1l2.91-1.32v8.48c0,1.74.18,3.01.55,3.81v.05h-2.91v-.05h0Z"/>
      <path class="cls-1" d="M51.3,202.14c-8.57,0-15.64-2.58-21.21-7.74s-8.35-11.74-8.35-19.74,2.82-14.59,8.47-19.74c5.64-5.16,12.73-7.74,21.25-7.74,3.13,0,6.54.33,10.24,1s6.59,1.46,8.7,2.39l.92,16.55c.05.26-.04.4-.27.42-.23.03-.37-.09-.42-.35-.31-3.34-.83-6.24-1.58-8.7-.74-2.46-1.68-4.34-2.81-5.62-1.39-1.59-3.38-2.81-5.97-3.66s-5.56-1.27-8.89-1.27c-7.34,0-13.27,2.45-17.78,7.35-4.52,4.9-6.78,11.35-6.78,19.36s2.22,14.52,6.66,19.4c4.44,4.88,10.3,7.31,17.59,7.31,3.39,0,6.41-.46,9.08-1.39,2.67-.92,4.72-2.23,6.16-3.93,1.13-1.23,2.06-3.07,2.81-5.5.74-2.44,1.3-5.45,1.66-9.04,0-.26.11-.38.35-.38s.32.13.27.38l-.92,17.16c-2.26.98-5.19,1.8-8.78,2.46-3.59.67-7.06,1-10.39,1"/>
      <path class="cls-1" d="M82.97,174.67c0,7.96,1.99,14.38,5.97,19.28s9.2,7.35,15.66,7.35,12.06-2.49,16.32-7.47,6.39-11.36,6.39-19.17-1.98-14.52-5.93-19.4c-3.95-4.87-9.24-7.31-15.86-7.31s-12.03,2.49-16.24,7.47-6.31,11.39-6.31,19.24M124.23,193.99c-2.57,2.57-5.53,4.55-8.89,5.97-3.36,1.41-6.84,2.12-10.43,2.12-7.59,0-14-2.63-19.2-7.89-5.21-5.26-7.81-11.76-7.81-19.51s2.65-14.33,7.97-19.59c5.31-5.26,11.77-7.89,19.36-7.89s14.14,2.62,19.32,7.85c5.18,5.23,7.77,11.78,7.77,19.63,0,3.7-.69,7.2-2.08,10.51s-3.39,6.25-6,8.81"/>
      <path class="cls-1" d="M159.26,202.07c-6,0-10.64-1.85-13.89-5.54-3.26-3.69-4.89-8.95-4.89-15.78v-20.44c0-.95-.03-1.78-.08-2.5,0-1.39-.03-2.55-.08-3.5s-.13-1.73-.23-2.35c-.21-1.28-.51-2.16-.92-2.62-.41-.46-1.33-.69-2.77-.69h-1.08c-.31,0-.46-.12-.46-.35s.15-.35.46-.35c.41,0,.95,0,1.62.04s1.69.06,3.08.11c.92.05,1.56.08,1.92.08h1.5c.33,0,.99-.03,1.96-.08,1.49-.05,2.58-.09,3.27-.11.69-.03,1.27-.04,1.73-.04.31,0,.46.12.46.35s-.15.35-.46.35h-1.38c-1.44,0-2.39.23-2.85.69s-.77,1.31-.92,2.54c-.1.62-.19,1.4-.27,2.35-.08.95-.12,2.14-.12,3.58-.05.72-.08,1.55-.08,2.5v18.36c0,6.93,1.46,12.21,4.39,15.86,2.92,3.64,7.16,5.46,12.7,5.46,4.77,0,8.54-1.78,11.32-5.35,2.77-3.57,4.16-8.38,4.16-14.43v-16.93c0-2.21-.08-4.13-.23-5.77-.16-1.64-.41-3.03-.77-4.16-.51-1.69-1.26-2.9-2.23-3.62-.98-.72-2.77-1.08-5.39-1.08h-.69c-.31,0-.46-.12-.46-.35s.15-.35.46-.35c.46,0,1.13,0,2,.04s2.28.06,4.23.11c1.28.05,2.16.08,2.62.08h1.58c.28,0,.78-.03,1.5-.08,1.13-.05,1.97-.09,2.54-.11.57-.03,1.05-.04,1.46-.04.31,0,.46.12.46.35s-.15.35-.46.35h-.54c-1.8,0-2.98.42-3.54,1.27-.57.85-.95,2.38-1.15,4.58-.1,1.03-.18,2.26-.23,3.7s-.08,3.13-.08,5.08v16.93c0,6.72-1.69,12.05-5.08,15.97-3.39,3.93-8.08,5.89-14.09,5.89"/>
      <path class="cls-1" d="M206.67,201.14c-1.49.05-2.58.09-3.27.12s-1.24.04-1.65.04c-.31,0-.46-.12-.46-.35s.15-.35.46-.35h1.38c1.69,0,2.76-.37,3.19-1.12.44-.74.7-2.24.81-4.5.05-.87.09-1.94.12-3.19.03-1.26.04-2.94.04-5.04v-38.41h-1.19c-.44,0-1.12.03-2.04.08h-3.08c-4.11,0-7.04.96-8.81,2.89-1.77,1.92-3.07,5.66-3.89,11.2l-.62,4.39c-.05.26-.21.38-.46.38s-.36-.13-.31-.38l.62-4.39c.26-1.74.44-3.52.54-5.31.1-1.8.15-3.95.15-6.47,0-1.08,0-1.76.04-2.04s.06-.45.12-.5c.2-.15,1.13-.27,2.77-.35s3.85-.12,6.62-.12h4.39c2.16.05,3.74.08,4.77.08h5.85c1.49-.05,2.85-.08,4.08-.08h4.31c2.87,0,5.11.04,6.7.12s2.49.19,2.69.35c.05.05.1.23.15.54.05.31.08,1.05.08,2.23,0,2.52.06,4.65.19,6.39.13,1.75.29,3.46.5,5.16l.54,4.39c.05.26-.03.38-.23.38s-.36-.13-.46-.38l-.69-4.39c-.87-5.49-2.19-9.21-3.96-11.16s-4.71-2.95-8.81-3h-6.16v38.41c0,2.1,0,3.78.04,5.04s.06,2.32.12,3.19c.1,2.26.37,3.76.81,4.5s1.5,1.12,3.19,1.12h1.39c.31,0,.46.12.46.35s-.15.35-.46.35c-.46,0-1.04,0-1.73-.04s-1.78-.06-3.27-.12c-.98-.05-1.63-.08-1.96-.08h-1.5c-.36,0-1.05.03-2.08.08"/>
      <path class="cls-1" d="M259.56,202.07c-6,0-10.64-1.85-13.89-5.54-3.26-3.69-4.89-8.95-4.89-15.78v-20.44c0-.95-.03-1.78-.08-2.5,0-1.39-.03-2.55-.08-3.5s-.13-1.73-.23-2.35c-.2-1.28-.51-2.16-.92-2.62-.41-.46-1.33-.69-2.77-.69h-1.08c-.31,0-.46-.12-.46-.35s.15-.35.46-.35c.41,0,.95,0,1.62.04s1.69.06,3.08.11c.92.05,1.56.08,1.92.08h1.5c.33,0,.99-.03,1.96-.08,1.49-.05,2.58-.09,3.27-.11.69-.03,1.27-.04,1.73-.04.31,0,.46.12.46.35s-.15.35-.46.35h-1.38c-1.44,0-2.39.23-2.85.69s-.77,1.31-.92,2.54c-.1.62-.19,1.4-.27,2.35-.08.95-.12,2.14-.12,3.58-.05.72-.08,1.55-.08,2.5v18.36c0,6.93,1.46,12.21,4.39,15.86,2.93,3.64,7.16,5.46,12.7,5.46,4.77,0,8.54-1.78,11.32-5.35,2.77-3.57,4.16-8.38,4.16-14.43v-16.93c0-2.21-.08-4.13-.23-5.77-.15-1.64-.41-3.03-.77-4.16-.51-1.69-1.26-2.9-2.23-3.62-.98-.72-2.77-1.08-5.39-1.08h-.69c-.31,0-.46-.12-.46-.35s.15-.35.46-.35c.46,0,1.13,0,2,.04s2.28.06,4.23.11c1.28.05,2.16.08,2.62.08h1.58c.28,0,.78-.03,1.5-.08,1.13-.05,1.98-.09,2.54-.11.57-.03,1.05-.04,1.46-.04.31,0,.46.12.46.35s-.15.35-.46.35h-.54c-1.8,0-2.98.42-3.54,1.27-.57.85-.95,2.38-1.15,4.58-.1,1.03-.18,2.26-.23,3.7-.05,1.44-.08,3.13-.08,5.08v16.93c0,6.72-1.69,12.05-5.08,15.97-3.39,3.93-8.08,5.89-14.09,5.89"/>
      <path class="cls-1" d="M296.58,153.5c-.05.67-.08,1.5-.08,2.5v16.82c.67-.05,1.49-.08,2.46-.08h4.85c4.41,0,8.06-1.1,10.93-3.31,2.87-2.21,4.31-5.21,4.31-9.01s-1.19-6.9-3.58-8.85c-2.39-1.95-5.99-2.92-10.82-2.92h-5.16c-1.28,0-2.08.32-2.39.96-.31.64-.49,1.94-.54,3.89M289.73,201.22c-1.08.05-1.8.08-2.16.08h-.69c-.31,0-.46-.12-.46-.35s.15-.35.46-.35c.82,0,1.54,0,2.16-.04s1.08-.06,1.38-.12c.57-.51.96-1.19,1.19-2.04.23-.85.37-2.19.42-4.04.05-1.39.09-3.37.12-5.97.03-2.59.04-6.02.04-10.28v-17.51c0-.95-.03-1.81-.08-2.58,0-1.39-.03-2.55-.08-3.5s-.13-1.76-.23-2.42c-.21-1.33-.53-2.24-.96-2.73-.44-.49-1.37-.73-2.81-.73h-1.39c-.31,0-.46-.12-.46-.35s.16-.35.46-.35c.41,0,.96,0,1.66.04.69.03,1.78.06,3.27.11,1.03.05,1.72.08,2.08.08h.77c.2,0,.6,0,1.19-.04s1.76-.04,3.5-.04c2-.05,3.36-.09,4.08-.11.72-.03,1.21-.04,1.46-.04,6.36,0,11.2,1.05,14.51,3.16,3.31,2.1,4.97,5.16,4.97,9.16,0,3.18-1.54,5.93-4.62,8.24-3.08,2.31-7.13,3.85-12.16,4.62,3.44.1,6.08.94,7.93,2.5,1.85,1.57,3.9,4.74,6.16,9.51,3.39,7.19,5.76,11.56,7.12,13.13,1.36,1.56,3.14,2.35,5.35,2.35h.54c.36,0,.54.12.54.35s-.18.35-.54.35h-2.77c-.36,0-.72,0-1.08.04s-.85.06-1.46.12c-.46.05-.8.08-1,.08h-.61c-.72,0-1.32-.14-1.81-.42s-1.04-.78-1.66-1.5c-.77-.87-1.62-2.19-2.54-3.96s-2.1-4.27-3.54-7.5c-1.34-3.08-2.42-5.41-3.27-7.01-.85-1.59-1.65-2.85-2.42-3.77-1.13-1.39-2.48-2.36-4.04-2.92-1.57-.57-3.91-.85-7.04-.85h-4.69v11.86c0,2.26.01,4.07.04,5.43.03,1.36.06,2.5.12,3.42.1,2.52.37,4.2.81,5.04.44.85,1.5,1.27,3.19,1.27h1.54c.31,0,.46.12.46.35s-.15.35-.46.35c-.46,0-1.04,0-1.73-.04s-1.78-.04-3.27-.04c-.92-.05-1.55-.08-1.89-.08h-2.08c-.64,0-1.81.03-3.5.08"/>
      <path class="cls-1" d="M344.3,201.07c-.57,0-2.05.03-4.46.08s-3.9.1-4.46.15c-.36,0-.54-.1-.54-.31s.18-.31.54-.31c2.31,0,3.73-.44,4.27-1.31.54-.87.91-3.1,1.12-6.7.05-1.69.09-4.94.12-9.74s.04-11.12.04-18.97v-3.39c0-.98-.03-1.85-.08-2.62,0-1.38-.04-2.55-.12-3.5s-.17-1.76-.27-2.42c-.21-1.28-.53-2.17-.96-2.66-.44-.49-1.4-.73-2.89-.73h-1.39c-.31,0-.46-.12-.46-.35s.16-.35.46-.35c.41,0,1,0,1.77.04s1.98.06,3.62.11c1.08.05,1.82.08,2.23.08h2.66c1.05,0,3.35-.03,6.89-.08,6.62-.05,11.21-.09,13.78-.11,2.57-.03,4.13-.04,4.7-.04.92,0,1.71.03,2.35.08s1.06.13,1.27.23c.16.1.38,1.05.69,2.85s.77,5.06,1.38,9.78l.31,2.77c.05.26-.05.38-.31.38s-.41-.13-.46-.38l-.39-2.77c-.67-4.16-2.12-7.2-4.35-9.12s-5.48-2.89-9.74-2.89h-13.32c-1.38,0-2.24.32-2.58.96-.33.64-.5,2.19-.5,4.66v18.7h10.39c3.44,0,5.86-.67,7.27-2s2.12-3.62,2.12-6.85v-1.62c0-.31.13-.46.38-.46s.38.15.38.46c0,.46-.01,1.17-.04,2.12s-.09,2.58-.19,4.89c-.05,1.44-.09,2.41-.12,2.92s-.04.85-.04,1c0,.21.01.64.04,1.31s.06,1.95.12,3.85c.1,1.95.17,3.28.19,4s.04,1.18.04,1.38c0,.31-.13.46-.38.46s-.38-.15-.38-.46v-1.15c0-3.28-.71-5.59-2.12-6.93-1.41-1.33-3.84-2-7.27-2h-10.39v17.47c0,2-.05,3.75-.15,5.23-.1,1.49-.23,2.62-.38,3.39h2.58c1.26,0,3.58.03,6.97.08,2.67.05,4.54.09,5.62.12s1.92.04,2.54.04c4.26,0,7.61-1.2,10.04-3.62,2.44-2.41,3.94-6,4.5-10.78l.46-4.08c.05-.26.22-.38.5-.38s.4.13.34.38l-.46,4.16c-.72,6.83-1.19,10.98-1.42,12.47s-.45,2.31-.66,2.46c-.1.1-.49.17-1.15.19-.67.03-3.75.04-9.24.04-1.08,0-2.55,0-4.43-.04-1.87-.03-4.91-.06-9.12-.12-2.67-.05-4.48-.08-5.43-.08h-2.04v.03Z"/>
      <path class="cls-1" d="M200,97.91c-13.07,0-23.71-12.73-23.71-28.37v-37.43c0-15.64,10.64-28.37,23.71-28.37s23.71,12.73,23.71,28.37h-.59c0-15.32-10.37-27.78-23.11-27.78s-23.11,12.46-23.11,27.78v37.43c0,15.32,10.37,27.78,23.11,27.78s23.11-12.46,23.11-27.78h.59c0,15.64-10.64,28.37-23.71,28.37"/>
      <path class="cls-1" d="M200,97.91c-15.65,0-28.38-14.13-28.38-31.49v-31.19c0-17.36,12.73-31.49,28.38-31.49s28.38,14.13,28.38,31.49h-.59c0-17.04-12.47-30.89-27.79-30.89s-27.79,13.86-27.79,30.89v31.19c0,17.04,12.47,30.9,27.79,30.9s27.79-13.86,27.79-30.9h.59c0,17.36-12.73,31.49-28.38,31.49"/>
      <path class="cls-1" d="M200,97.91c-18.23,0-33.06-15.53-33.06-34.61v-24.95c0-19.08,14.83-34.61,33.06-34.61s33.06,15.53,33.06,34.61h-.59c0-18.76-14.56-34.02-32.46-34.02s-32.46,15.26-32.46,34.02v24.95c0,18.76,14.56,34.02,32.46,34.02s32.46-15.26,32.46-34.02h.59c0,19.08-14.83,34.61-33.06,34.61"/>
      <path class="cls-1" d="M200,97.91c-20.8,0-37.73-16.93-37.73-37.73v-18.72c0-20.8,16.93-37.73,37.73-37.73s37.73,16.93,37.73,37.73h-.59c0-20.48-16.66-37.13-37.14-37.13s-37.14,16.66-37.14,37.13v18.72c0,20.48,16.66,37.14,37.14,37.14s37.14-16.66,37.14-37.14h.59c0,20.8-16.93,37.73-37.73,37.73"/>
    </g>
  </g>
</svg>