<?xml version="1.0" encoding="UTF-8"?>
<svg id="Layer_1" xmlns="http://www.w3.org/2000/svg" version="1.1" viewBox="0 0 125 38">
  <!-- Generator: Adobe Illustrator 29.0.0, SVG Export Plug-In . SVG Version: 2.1.0 Build 186)  -->
  <defs>
    <style>
      .st0 {
        fill: #4285f4;
      }

      .st1 {
        fill: #34a853;
      }

      .st2 {
        fill: #fbbc04;
      }

      .st3 {
        fill: #fff;
      }

      .st4 {
        stroke: #fff;
        stroke-miterlimit: 10;
        stroke-width: .2px;
      }

      .st4, .st5 {
        fill: none;
      }

      .st6 {
        fill: #ea4335;
      }

      .st5 {
        stroke: #a6a6a6;
      }
    </style>
  </defs>
  <rect x=".5" y=".5" width="124" height="37" rx="5.5" ry="5.5"/>
  <rect class="st5" x=".5" y=".5" width="124" height="37" rx="5.5" ry="5.5"/>
  <path class="st3" d="M43.91,9.73c0,.8-.23,1.43-.69,1.9-.52.56-1.19.85-2.04.85s-1.49-.28-2.05-.86c-.56-.57-.83-1.28-.83-2.12s.28-1.55.83-2.12c.56-.57,1.24-.86,2.05-.86.41,0,.8.08,1.16.22.36.15.66.36.89.63l-.51.52c-.17-.21-.39-.38-.67-.49-.27-.12-.56-.18-.87-.18-.6,0-1.12.22-1.54.65-.42.44-.62.98-.62,1.63s.2,1.2.62,1.63c.42.43.93.65,1.54.65.56,0,1.01-.16,1.38-.48.37-.31.58-.76.64-1.31h-2.02v-.68h2.69c.03.15.04.29.04.43Z"/>
  <path class="st3" d="M48.18,6.65v.7h-2.53v1.8h2.28v.68h-2.28v1.81h2.53v.7h-3.24v-5.7h3.24Z"/>
  <path class="st3" d="M51.19,7.35v5h-.71v-5h-1.56v-.7h3.81v.7h-1.56,0Z"/>
  <path class="st3" d="M56.21,12.35h-.71v-5.7h.71v5.7Z"/>
  <path class="st3" d="M59.38,7.35v5h-.71v-5h-1.56v-.7h3.81v.7h-1.56,0Z"/>
  <path class="st3" d="M68.97,9.5c0,.85-.28,1.55-.82,2.12-.56.57-1.23.86-2.04.86s-1.48-.28-2.04-.86c-.55-.57-.82-1.27-.82-2.12s.28-1.55.82-2.12c.55-.57,1.22-.86,2.04-.86s1.48.28,2.04.86c.55.57.82,1.27.82,2.11h0ZM63.99,9.5c0,.66.2,1.21.6,1.63.41.43.92.65,1.52.65s1.11-.22,1.51-.65c.41-.43.61-.97.61-1.63s-.2-1.21-.61-1.63c-.41-.43-.91-.65-1.51-.65s-1.11.22-1.52.65-.6.98-.6,1.63Z"/>
  <path class="st3" d="M70.69,12.35h-.71v-5.7h.87l2.7,4.44h.03l-.03-1.1v-3.33h.71v5.7h-.74l-2.82-4.65h-.03l.03,1.1v3.55h0Z"/>
  <path class="st4" d="M43.91,9.73c0,.8-.23,1.43-.69,1.9-.52.56-1.19.85-2.04.85s-1.49-.28-2.05-.86c-.56-.57-.83-1.28-.83-2.12s.28-1.55.83-2.12c.56-.57,1.24-.86,2.05-.86.41,0,.8.08,1.16.22.36.15.66.36.89.63l-.51.52c-.17-.21-.39-.38-.67-.49-.27-.12-.56-.18-.87-.18-.6,0-1.12.22-1.54.65-.42.44-.62.98-.62,1.63s.2,1.2.62,1.63c.42.43.93.65,1.54.65.56,0,1.01-.16,1.38-.48.37-.31.58-.76.64-1.31h-2.02v-.68h2.69c.03.15.04.29.04.43Z"/>
  <path class="st4" d="M48.18,6.65v.7h-2.53v1.8h2.28v.68h-2.28v1.81h2.53v.7h-3.24v-5.7h3.24Z"/>
  <path class="st4" d="M51.19,7.35v5h-.71v-5h-1.56v-.7h3.81v.7h-1.56,0Z"/>
  <path class="st4" d="M56.21,12.35h-.71v-5.7h.71v5.7Z"/>
  <path class="st4" d="M59.38,7.35v5h-.71v-5h-1.56v-.7h3.81v.7h-1.56,0Z"/>
  <path class="st4" d="M68.97,9.5c0,.85-.28,1.55-.82,2.12-.56.57-1.23.86-2.04.86s-1.48-.28-2.04-.86c-.55-.57-.82-1.27-.82-2.12s.28-1.55.82-2.12c.55-.57,1.22-.86,2.04-.86s1.48.28,2.04.86c.55.57.82,1.27.82,2.11h0ZM63.99,9.5c0,.66.2,1.21.6,1.63.41.43.92.65,1.52.65s1.11-.22,1.51-.65c.41-.43.61-.97.61-1.63s-.2-1.21-.61-1.63c-.41-.43-.91-.65-1.51-.65s-1.11.22-1.52.65-.6.98-.6,1.63Z"/>
  <path class="st4" d="M70.69,12.35h-.71v-5.7h.87l2.7,4.44h.03l-.03-1.1v-3.33h.71v5.7h-.74l-2.82-4.65h-.03l.03,1.1v3.55h0Z"/>
  <path class="st3" d="M63.09,20.66c-2.18,0-3.95,1.7-3.95,4.04s1.78,4.04,3.95,4.04,3.95-1.71,3.95-4.04-1.78-4.04-3.95-4.04ZM63.09,27.15c-1.19,0-2.22-1.01-2.22-2.45s1.03-2.45,2.22-2.45,2.22,1,2.22,2.45-1.03,2.45-2.22,2.45ZM54.47,20.66c-2.18,0-3.95,1.7-3.95,4.04s1.78,4.04,3.95,4.04,3.95-1.71,3.95-4.04-1.78-4.04-3.95-4.04ZM54.47,27.15c-1.19,0-2.22-1.01-2.22-2.45s1.03-2.45,2.22-2.45,2.22,1,2.22,2.45-1.03,2.45-2.22,2.45ZM44.21,21.9v1.71h4c-.12.96-.44,1.67-.91,2.16-.58.6-1.49,1.25-3.08,1.25-2.46,0-4.39-2.03-4.39-4.56s1.93-4.56,4.39-4.56c1.32,0,2.3.53,3.01,1.23l1.18-1.21c-1-.98-2.32-1.73-4.19-1.73-3.37,0-6.2,2.81-6.2,6.28s2.83,6.28,6.2,6.28c1.82,0,3.19-.61,4.27-1.76,1.1-1.13,1.44-2.73,1.44-4.01,0-.4-.03-.77-.09-1.07h-5.62ZM86.17,23.23c-.32-.9-1.32-2.57-3.37-2.57s-3.71,1.63-3.71,4.04c0,2.26,1.67,4.04,3.91,4.04,1.81,0,2.85-1.13,3.28-1.79l-1.34-.92c-.44.67-1.06,1.12-1.94,1.12s-1.51-.41-1.91-1.23l5.27-2.23-.18-.46h0ZM80.79,24.58c-.05-1.56,1.18-2.36,2.06-2.36.69,0,1.27.35,1.46.85l-3.52,1.5ZM76.52,28.49h1.73v-11.88h-1.73v11.88ZM73.68,21.56h-.06c-.39-.47-1.13-.9-2.07-.9-1.97,0-3.78,1.78-3.78,4.06s1.81,4.03,3.78,4.03c.94,0,1.69-.43,2.07-.92h.06v.58c0,1.55-.81,2.38-2.1,2.38-1.06,0-1.71-.78-1.98-1.43l-1.51.65c.44,1.07,1.58,2.38,3.49,2.38,2.03,0,3.74-1.23,3.74-4.21v-7.26h-1.64v.66ZM71.7,27.14c-1.19,0-2.19-1.03-2.19-2.43s1-2.46,2.19-2.46,2.1,1.05,2.1,2.46-.93,2.43-2.1,2.43ZM94.28,16.62h-4.14v11.88h1.73v-4.5h2.42c1.92,0,3.8-1.43,3.8-3.69s-1.88-3.69-3.8-3.69h0ZM94.32,22.34h-2.45v-4.08h2.45c1.3,0,2.03,1.1,2.03,2.03s-.73,2.03-2.03,2.03h0ZM105,20.63c-1.25,0-2.55.57-3.08,1.81l1.54.66c.32-.66.93-.87,1.57-.87.89,0,1.81.55,1.82,1.53v.12c-.32-.18-.98-.46-1.81-.46-1.66,0-3.33.93-3.33,2.67,0,1.59,1.35,2.61,2.87,2.61,1.16,0,1.81-.53,2.2-1.16h.06v.91h1.67v-4.55c0-2.11-1.54-3.29-3.52-3.29h.02ZM104.79,27.14c-.57,0-1.35-.29-1.35-1.01,0-.91.98-1.26,1.83-1.26.76,0,1.12.17,1.57.4-.13,1.1-1.06,1.88-2.06,1.88h0ZM114.58,20.89l-1.98,5.15h-.06l-2.06-5.15h-1.86l3.08,7.2-1.76,4h1.81l4.75-11.2h-1.93ZM99.02,28.49h1.73v-11.88h-1.73v11.88Z"/>
  <path class="st6" d="M19.19,18.45l-9.86,10.74c.31,1.17,1.34,2.02,2.57,2.02.49,0,.95-.13,1.35-.38l.03-.02,11.09-6.56-5.19-5.8h0Z"/>
  <path class="st2" d="M29.16,16.63h0l-4.79-2.86-5.4,4.93,5.42,5.56,4.77-2.82c.83-.47,1.4-1.37,1.4-2.4s-.56-1.94-1.39-2.39h0Z"/>
  <path class="st0" d="M9.32,8.81c-.06.23-.09.46-.09.7v18.97c0,.25.03.48.09.7l10.19-10.46-10.19-9.92Z"/>
  <path class="st1" d="M19.26,19l5.1-5.23-11.08-6.59c-.4-.25-.87-.39-1.38-.39-1.23,0-2.27.86-2.57,2.02l9.94,10.18h0Z"/>
</svg>