<?xml version="1.0" encoding="UTF-8"?>
<svg id="Layer_1" xmlns="http://www.w3.org/2000/svg" version="1.1" viewBox="0 0 125 38">
  <!-- Generator: Adobe Illustrator 29.0.0, SVG Export Plug-In . SVG Version: 2.1.0 Build 186)  -->
  <defs>
    <style>
      .st0 {
        fill: #fff;
      }

      .st1 {
        fill: none;
        stroke: #a6a6a6;
      }
    </style>
  </defs>
  <rect x=".5" y=".5" width="124" height="37" rx="5.5" ry="5.5"/>
  <g>
    <path class="st0" d="M46.07,24.85h-4.46l-1.07,3.18h-1.89l4.23-11.77h1.96l4.23,11.77h-1.92l-1.07-3.18ZM42.07,23.38h3.54l-1.74-5.16h-.05l-1.74,5.16Z"/>
    <path class="st0" d="M58.19,23.74c0,2.67-1.42,4.38-3.56,4.38-.54.03-1.08-.1-1.56-.36-.47-.27-.87-.66-1.13-1.14h-.04v4.25h-1.75v-11.42h1.7v1.43h.03c.27-.48.67-.87,1.15-1.14.48-.27,1.02-.4,1.57-.38,2.17,0,3.59,1.72,3.59,4.38ZM56.39,23.74c0-1.74-.89-2.88-2.26-2.88s-2.24,1.17-2.24,2.88.9,2.89,2.24,2.89,2.26-1.13,2.26-2.89Z"/>
    <path class="st0" d="M67.59,23.74c0,2.67-1.42,4.38-3.56,4.38-.54.03-1.08-.1-1.56-.36-.47-.27-.87-.66-1.13-1.14h-.04v4.25h-1.75v-11.42h1.7v1.43h.03c.27-.48.67-.87,1.15-1.14.48-.27,1.02-.4,1.57-.38,2.17,0,3.59,1.72,3.59,4.38ZM65.79,23.74c0-1.74-.89-2.88-2.26-2.88s-2.24,1.17-2.24,2.88.9,2.89,2.24,2.89,2.26-1.13,2.26-2.89Z"/>
    <path class="st0" d="M73.79,24.75c.13,1.17,1.26,1.93,2.8,1.93s2.54-.77,2.54-1.82c0-.91-.64-1.46-2.16-1.83l-1.52-.37c-2.15-.52-3.15-1.53-3.15-3.17,0-2.03,1.76-3.42,4.26-3.42s4.17,1.39,4.23,3.42h-1.77c-.11-1.17-1.07-1.88-2.48-1.88s-2.38.72-2.38,1.76c0,.83.62,1.32,2.13,1.7l1.29.32c2.4.57,3.4,1.54,3.4,3.26,0,2.2-1.74,3.58-4.52,3.58-2.6,0-4.35-1.35-4.46-3.47h1.79Z"/>
    <path class="st0" d="M84.76,17.42v2.03h1.62v1.39h-1.62v4.73c0,.73.32,1.08,1.04,1.08.19,0,.39-.02.58-.04v1.39c-.32.06-.65.09-.97.08-1.73,0-2.4-.65-2.4-2.32v-4.92h-1.24v-1.39h1.24v-2.03h1.76Z"/>
    <path class="st0" d="M87.33,23.74c0-2.7,1.58-4.4,4.05-4.4s4.05,1.7,4.05,4.4-1.57,4.4-4.05,4.4-4.05-1.69-4.05-4.4ZM93.64,23.74c0-1.85-.84-2.94-2.26-2.94s-2.26,1.1-2.26,2.94.84,2.94,2.26,2.94,2.26-1.08,2.26-2.94Z"/>
    <path class="st0" d="M96.87,19.45h1.67v1.46h.04c.11-.46.38-.86.75-1.14.37-.28.83-.43,1.3-.41.2,0,.4.02.6.07v1.65c-.26-.08-.52-.11-.79-.11-.25-.01-.51.03-.74.13-.24.1-.45.25-.62.43s-.31.41-.38.65c-.08.24-.11.5-.08.76v5.09h-1.75v-8.58Z"/>
    <path class="st0" d="M109.31,25.51c-.24,1.56-1.74,2.63-3.67,2.63-2.48,0-4.02-1.67-4.02-4.35s1.55-4.44,3.95-4.44,3.85,1.63,3.85,4.23v.6h-6.03v.11c-.03.32.01.63.12.93.1.3.27.57.49.8.22.23.48.41.77.53.29.12.61.18.92.16.41.04.83-.06,1.18-.27.35-.22.63-.54.79-.93h1.66ZM103.39,22.95h4.27c.02-.28-.03-.57-.13-.83-.1-.27-.25-.51-.45-.71-.2-.2-.43-.37-.69-.47s-.54-.16-.83-.15c-.29,0-.57.05-.83.16-.26.11-.5.27-.71.47s-.36.44-.47.71c-.11.26-.17.55-.16.84Z"/>
    <path class="st0" d="M41.85,7.41c.37-.03.74.03,1.08.16.34.13.65.34.91.61.25.27.44.59.56.94.11.35.15.72.1,1.09,0,1.81-.97,2.84-2.65,2.84h-2.03v-5.65h2.03ZM40.69,12.27h1.06c.26.02.53-.03.77-.13.24-.1.46-.25.64-.45.18-.19.31-.43.39-.68.08-.25.1-.52.06-.78.04-.26.01-.53-.07-.78-.08-.25-.21-.48-.39-.67-.18-.19-.39-.34-.64-.44-.24-.1-.5-.14-.76-.13h-1.06v4.06Z"/>
    <path class="st0" d="M45.48,10.93c-.03-.28,0-.56.09-.83.09-.27.23-.51.42-.72.19-.21.42-.37.67-.49.26-.11.53-.17.81-.17s.56.06.81.17c.26.11.49.28.67.49.19.21.33.45.42.72.09.27.12.55.09.83.03.28,0,.56-.09.83-.09.27-.23.51-.42.72-.19.21-.42.38-.67.49-.26.11-.53.17-.81.17s-.56-.06-.81-.17c-.26-.11-.49-.28-.68-.49-.19-.21-.33-.46-.42-.72-.09-.27-.12-.55-.09-.83ZM48.63,10.93c0-.92-.41-1.47-1.14-1.47s-1.14.54-1.14,1.47.41,1.47,1.14,1.47c.73,0,1.14-.54,1.14-1.47Z"/>
    <path class="st0" d="M54.81,13.07h-.87l-.88-3.14h-.07l-.87,3.14h-.86l-1.17-4.27h.85l.76,3.26h.06l.87-3.26h.8l.87,3.26h.07l.76-3.26h.84l-1.17,4.27Z"/>
    <path class="st0" d="M56.96,8.8h.81v.68h.06c.11-.24.29-.45.51-.58.23-.14.49-.2.75-.18.21-.02.41.02.61.09.19.08.37.19.51.35.14.15.25.33.31.53.06.2.08.41.05.61v2.76h-.84v-2.55c0-.69-.3-1.03-.92-1.03-.14,0-.28.02-.41.07-.13.05-.25.13-.34.24-.1.1-.17.23-.21.36-.04.13-.06.28-.05.42v2.5h-.84v-4.27Z"/>
    <path class="st0" d="M61.9,7.13h.84v5.93h-.84v-5.93Z"/>
    <path class="st0" d="M63.9,10.93c-.03-.28,0-.56.09-.83.09-.27.23-.51.42-.72s.42-.37.67-.49c.26-.11.53-.17.81-.17s.56.06.81.17c.26.11.49.28.67.49.19.21.33.45.42.72.09.27.12.55.09.83.03.28,0,.56-.09.83-.09.27-.23.51-.42.72-.19.21-.42.38-.67.49-.26.11-.53.17-.81.17s-.56-.06-.81-.17c-.26-.11-.49-.28-.68-.49-.19-.21-.33-.46-.42-.72-.09-.27-.12-.55-.09-.83ZM67.04,10.93c0-.92-.41-1.47-1.14-1.47s-1.14.54-1.14,1.47.41,1.47,1.14,1.47c.73,0,1.14-.54,1.14-1.47Z"/>
    <path class="st0" d="M68.79,11.86c0-.77.57-1.21,1.58-1.27l1.15-.07v-.37c0-.45-.3-.71-.87-.71-.47,0-.79.17-.88.47h-.81c.09-.73.77-1.2,1.73-1.2,1.06,0,1.66.53,1.66,1.43v2.92h-.81v-.6h-.07c-.13.22-.32.39-.55.51-.22.12-.48.17-.73.16-.18.02-.36,0-.53-.06-.17-.06-.33-.15-.46-.27-.13-.12-.24-.27-.31-.43-.07-.16-.11-.34-.11-.52ZM71.52,11.49v-.36l-1.04.07c-.58.04-.85.24-.85.62s.33.61.79.61c.13.01.27,0,.4-.04.13-.04.25-.11.35-.19.1-.09.19-.19.25-.31.06-.12.1-.25.11-.39Z"/>
    <path class="st0" d="M73.45,10.93c0-1.35.69-2.2,1.76-2.2.27-.01.53.05.76.18.23.13.42.33.54.56h.06v-2.34h.84v5.93h-.8v-.67h-.07c-.13.23-.33.43-.56.56-.23.13-.5.2-.77.19-1.08,0-1.76-.85-1.76-2.21ZM74.32,10.93c0,.91.42,1.45,1.13,1.45s1.14-.55,1.14-1.45-.44-1.45-1.14-1.45-1.13.55-1.13,1.45Z"/>
    <path class="st0" d="M80.88,10.93c-.03-.28,0-.56.09-.83.09-.27.23-.51.42-.72.19-.21.42-.37.67-.49.26-.11.53-.17.81-.17s.56.06.81.17c.26.11.49.28.67.49.19.21.33.45.42.72.09.27.12.55.09.83.03.28,0,.56-.09.83-.09.27-.23.51-.42.72-.19.21-.42.38-.67.49-.26.11-.53.17-.81.17s-.56-.06-.81-.17c-.26-.11-.49-.28-.68-.49-.19-.21-.33-.46-.42-.72-.09-.27-.12-.55-.09-.83ZM84.02,10.93c0-.92-.41-1.47-1.14-1.47s-1.14.54-1.14,1.47.41,1.47,1.14,1.47c.73,0,1.14-.54,1.14-1.47Z"/>
    <path class="st0" d="M86.01,8.8h.81v.68h.06c.11-.24.29-.45.51-.58s.49-.2.75-.18c.21-.02.41.02.61.09.19.08.37.19.51.35.14.15.25.33.31.53.06.2.08.41.05.61v2.76h-.84v-2.55c0-.69-.3-1.03-.92-1.03-.14,0-.28.02-.41.07-.13.05-.25.13-.34.24-.1.1-.17.23-.21.36-.04.13-.06.28-.05.42v2.5h-.84v-4.27Z"/>
    <path class="st0" d="M94.35,7.74v1.08h.92v.71h-.92v2.19c0,.45.18.64.6.64.11,0,.21,0,.32-.02v.7c-.15.03-.3.04-.46.04-.93,0-1.3-.33-1.3-1.15v-2.41h-.67v-.71h.67v-1.08h.84Z"/>
    <path class="st0" d="M96.41,7.13h.83v2.35h.07c.11-.25.3-.45.53-.59.23-.14.5-.2.77-.18.21-.01.41.02.6.1.19.08.36.2.5.35.14.15.24.33.31.53.06.2.08.41.05.61v2.75h-.84v-2.55c0-.68-.32-1.03-.91-1.03-.14-.01-.29,0-.42.06-.14.05-.26.13-.36.23-.1.1-.18.23-.23.36-.05.14-.07.28-.06.43v2.49h-.84v-5.93Z"/>
    <path class="st0" d="M104.95,11.91c-.11.39-.36.73-.7.95-.34.23-.74.33-1.14.28-.28,0-.56-.05-.81-.16-.26-.11-.49-.28-.67-.49-.19-.21-.32-.46-.41-.73-.08-.27-.1-.55-.07-.83-.04-.28-.01-.56.07-.83.08-.27.22-.52.41-.73.19-.21.41-.38.67-.49.26-.11.53-.17.81-.17,1.18,0,1.89.81,1.89,2.15v.29h-3v.05c-.01.16,0,.31.06.46.05.15.13.28.24.4.11.12.24.21.38.27.14.06.3.09.45.09.2.02.4-.01.58-.1.18-.09.33-.24.43-.41h.81ZM102,10.54h2.14c.01-.14,0-.29-.06-.42-.05-.14-.12-.26-.22-.36-.1-.1-.22-.19-.35-.24-.13-.06-.27-.08-.42-.08-.14,0-.29.03-.42.08-.13.05-.26.14-.36.24-.1.1-.18.23-.24.36-.06.13-.08.28-.08.43Z"/>
    <path class="st0" d="M29.54,18.37c.01-.79.22-1.57.61-2.25.39-.69.94-1.27,1.61-1.68-.43-.61-.99-1.11-1.64-1.47-.65-.35-1.38-.55-2.12-.58-1.58-.17-3.12.95-3.92.95s-2.06-.94-3.4-.91c-.87.03-1.71.28-2.45.73-.74.45-1.35,1.09-1.77,1.85-1.82,3.17-.46,7.84,1.28,10.4.87,1.26,1.89,2.66,3.23,2.61,1.31-.05,1.8-.84,3.37-.84s2.02.84,3.39.81c1.4-.02,2.29-1.26,3.13-2.53.63-.89,1.11-1.88,1.43-2.93-.82-.35-1.51-.93-2-1.67-.49-.74-.75-1.61-.75-2.5Z"/>
    <path class="st0" d="M26.97,10.71c.76-.92,1.14-2.11,1.05-3.31-1.17.12-2.25.68-3.02,1.57-.38.43-.67.94-.85,1.48-.18.55-.26,1.12-.22,1.7.58,0,1.16-.12,1.69-.37.53-.25.99-.62,1.36-1.08Z"/>
  </g>
  <rect class="st1" x=".5" y=".5" width="124" height="37" rx="5.5" ry="5.5"/>
</svg>